<?xml version="1.0" encoding="utf-8"?>
<!-- Generator: Adobe Illustrator 22.0.1, SVG Export Plug-In . SVG Version: 6.00 Build 0)  -->
<svg version="1.1" id="Layer_1" xmlns="http://www.w3.org/2000/svg" xmlns:xlink="http://www.w3.org/1999/xlink" x="0px" y="0px"
	 width="1200px" height="1080px" viewBox="0 0 1200 1080" style="enable-background:new 0 0 1200 1080;" xml:space="preserve">
<style type="text/css">
	.st0{fill:#FFFFFF;}
	.st1{fill:none;stroke:#000000;stroke-width:8;stroke-miterlimit:10;}
</style>
<g>
	<path class="st0" d="M189.2,1035.8c-22,1.9-43.9,4.8-66.2,8.6c-22.3,3.9-43.9,8.8-65.3,15.1c-21.3,6.2-40.6,13.6-57.7,22.1
		c3.9-42.9,8.2-90.6,13.4-143c5-52.5,11-106.7,17.6-163.1c6.6-56.2,13.4-113,20-170.3c6.6-57.3,13.4-112.1,20.5-164.6
		C87.4,315.7,104.2,188.3,122,58.6l166.7-33C271.6,136.3,255.1,244,239.1,349c-6.9,44.8-13.9,91.4-21,139.5
		c-6.9,48.1-13.7,95.1-20,141c-6.3,45.7-12.1,90.1-17.1,133.1c-5,42.9-9.2,81.1-12.4,114.4c15.8-1.9,32.8-3.1,50.9-3.5
		c18.1-0.5,34.1-0.7,48.1-0.7c0.6,18.1,1.6,36,2.9,53.6c1.3,17.7,2.7,33.6,4.4,47.9s2.9,26.9,3.9,37.9c1,10.9,1.8,18.4,2.4,22.1
		c-5,0-10-0.2-14.7-0.7c-4.7-0.5-9.7-0.7-14.7-0.7C231.9,1032.9,211.2,1033.8,189.2,1035.8z"/>
	<path class="st0" d="M432.5,1053.7c-16.5,2.4-33.6,5.2-51.4,8.6s-33.8,6.4-48.1,9.4c-14.2,2.9-22,4.8-23.3,5.7
		c7.6-40.9,15.2-86.6,22.8-136.6s15.3-102.5,23.3-157.4c7.9-54.9,15.5-110.4,22.8-166.6c7.3-56.2,14.4-110.6,21.5-163.1
		c15.8-122,31.5-247.5,46.7-376.2l148.6-35.8c-16.5,127.8-33,253.2-49.6,376.2c-6.9,52.5-14.1,106.9-21.5,163.1
		c-7.3,56.3-14.2,112.1-21,167.4c-6.6,55.3-13.4,108.9-20,160.9c-6.6,52-12.6,99-17.6,141C460.2,1050,449,1051.3,432.5,1053.7z"/>
	<path class="st0" d="M516.4,1070.1c28-126.8,54.6-251.2,80-373.4c10.8-51.5,22-105.4,33.3-161.6c11.5-56.2,22.8-112.1,34.3-167.4
		c11.5-55.3,22-108.7,31.8-160.2c9.9-51.5,18.6-99.2,26.2-143c34.9,0,67.9-2.9,99-8.6c31-5.7,64.8-10.9,101-15.7
		c-1.9,21-4,44.6-6.1,70.8c-2.3,26.2-4.7,53.6-7.6,82.2c-2.9,28.6-5.8,58.2-9,88.7s-6.9,69.7-11.5,117.4
		c-4.5,47.7-10.5,107.3-18.1,178.8H882c18.4-72.4,33.6-132.8,45.7-181c12.1-48.1,22-87.5,29.6-118c7.6-30.6,15.3-60.3,23.3-89.4
		s15.5-56.7,22.8-83c7.3-26.2,14.1-49.4,20.5-69.3c15.8-1.9,30.9-4.3,44.8-7.2c13.9-2.9,28-5.9,41.8-9.4c13.9-3.3,28.1-6.6,42.3-10
		c14.2-3.3,30.1-7.4,47.2-12.2c-6.3,55.3-12.4,112.1-18.1,170.3s-10.8,116.1-15.2,173.8c-4.5,57.7-8.7,114.7-12.9,171
		c-4.2,56.3-7.8,109.7-11,160.2c-7.6,118.3-14.2,233.7-20,346.2L957,1064.4c0-4.8,0.5-17.7,1.5-38.7c1-21,2.3-46.8,3.9-77.2
		c1.6-30.6,3.9-64.3,6.6-101.6c2.9-37.2,5.7-74.4,8.6-111.5c2.9-37.2,5.8-73.2,9-108s6.3-64.6,9.5-89.4h-8.6
		c-8.9,40-18.7,82.2-29.6,126.6c-10.8,44.4-21.8,89.4-32.8,135.1c-11.1,45.7-22.1,90.7-32.8,134.5c-10.8,43.9-20.4,85.9-28.6,125.9
		c-22.3,0.9-41.2,2.2-57.2,3.5c-15.8,1.5-34.3,3.1-55.3,5l30.5-530.8h-14.2c-1.3,12.4-4.5,33.2-9.5,62.3c-5,29.1-11,62.5-17.6,100.1
		c-6.6,37.6-13.7,76.8-21.5,117.4c-7.6,40.6-14.7,78.2-21.5,113c-6.6,34.8-12.3,63.4-16.6,85.9c-4.5,22.5-6.9,35-7.6,37.9
		L516.4,1070.1z"/>
</g>
<g>
	<g>
		<g>
			<path id="SVGID_1_" d="M390.6,575.4c8.2,4.1,15,7.9,20.4,11.6c5.4,3.6,9.5,7.8,12.4,12.2c2.8,4.4,4.5,9.4,5.1,14.9
				c0.4,5.5,0,12.2-1.5,19.8c-1.5,7-4.2,12.5-7.7,16.5c-3.6,4.1-8,7-13.5,8.9c-5.4,1.8-11.8,2.9-18.9,3.1c-7.1,0.2-15.2-0.1-24-0.8
				c-11.3-1.1-21.4-4-30.5-8.6c-9.1-4.6-17.7-10.6-25.9-17.9c-5.2-4.4-11.8-9.8-19.6-16.3c-8-6.4-16.1-12.7-24.3-18.5
				c-7.1,7.4-14.4,14.1-21.6,20.4c-7.1,6.3-14.4,11.6-21.6,16c-9.8,6.3-19.1,11.4-27.8,15.5s-17.7,7.4-26.6,9.9
				c-9.1,2.6-18.5,4.3-28.1,5.2c-9.8,0.9-20.5,1.3-32.4,0.8c-13.8-0.3-30.7-2.6-50.2-6.6c-19.5-4.1-37.7-9.4-54-16
				c7.1-1.5,13.8-3.1,20.1-4.7c6.3-1.6,13.7-4.1,22.3-7.4c24.7-9.6,47.3-20.8,68-33.4c20.5-12.7,39.3-26.3,56-40.8
				c16.7-14.6,31.9-29.7,45.5-45.3c13.7-15.6,26.3-31.4,38.3-47.2c-14.4,0.8-28.9,1.3-43.3,1.4c-14.4,0.2-27.2,0.1-38.6-0.2
				c-23.2-0.7-42.3-3.8-57.2-9.1c-14.9-5.4-28.9-15.7-41.7-31.2c-5.2-5.9-4.2-12.2,3.1-18.8c3.6-3.3,7.6-6.7,11.9-10.3
				c4.3-3.5,8.6-6.2,12.8-8c5.7-2.6,10.1-3.5,13.5-2.7c3.3,0.8,7.6,2.2,12.8,4.4c9.8,4.1,21.9,6,36.3,6c6.3,0,14.7-0.1,25.5-0.2
				c10.9-0.2,22.3-0.6,34.4-1.1c12.1-0.6,24.1-1.1,35.9-1.7c11.9-0.6,22.3-1.1,31.7-1.9c5.7-1.8,11.9-3.5,18.9-5.2
				s14.6-2.2,22.8-1.4c4.2,0.3,8,1.3,11.6,2.5c3.6,1.3,7.7,3.4,12.4,6.4c3.6,1.8,8,4.8,13.1,8.9c5.2,4.1,9.8,8.1,13.8,12.2
				c3.6,4.1,6.3,8,7.7,11.9s1.5,7.9,0,11.9c-2.5,7.4-6.4,13.9-11.6,19.6c-5.2,5.7-9.8,11.7-13.8,17.9c-7.1,9.9-14.7,20.3-22.3,30.9
				c-7.7,10.7-15.8,21.2-24,31.5c5.7,2.6,12.1,5.5,19.4,8.9c7.1,3.3,14.4,6.7,21.6,10.3c7.1,3.5,13.8,6.7,20.1,9.7
				C382.8,571.7,387.5,574,390.6,575.4z M595.3,650.5c0,12.9-2.4,26.1-7.3,39.5c-4.9,13.5-11.5,26.6-19.6,39.2s-17.7,24.7-28.1,36.2
				c-10.6,11.4-21.4,21.6-32.9,30.3c0.4-8.9-1.5-17.9-5.8-27c-4.3-9.2-9.4-18.6-15-28.2c-7.1-12.2-11.5-25.5-12.8-40
				c-1.3-14.6-1.5-30.8-0.4-48.9c0.4-19.5,1.2-41.2,1.9-64.9c0.7-23.7,1.2-47.6,1.2-71.3c0-23.7-0.1-46.3-0.4-67.6
				s-0.6-39.6-1.2-54.7c-1-14.4-3.1-25.1-6.3-32.3c-3.1-7.2-8.2-13.7-15.5-19.6c-9.2-7.8-12.2-14-8.9-18.8
				c3.3-4.8,11.8-11.1,25.2-18.8c6.7-3.6,12.5-6.7,17.4-9.1s9.5-3.8,13.8-4.1c4.3-0.3,8.9,0.2,13.5,1.7c4.6,1.5,10.3,3.9,17,7.2
				c12.4,6.6,22.3,12.7,29.8,17.9c7.4,5.4,13.4,11.1,17.7,17.1c4.3,6,7.4,12.8,9.2,20.2c1.8,7.4,2.7,16.2,2.7,26.6
				c0,12.9,0.3,27.4,0.7,43.3c0.4,16,0.9,32.6,1.2,49.7c0.3,17.1,0.4,34.3,0.7,51.7c0.3,17.3,0.4,33.8,0.7,49.5
				c0.3,15.6,0.4,30,0.7,43.1C595.1,631.4,595.3,642.1,595.3,650.5z"/>
		</g>
	</g>
	<g>
		<g>
			<path id="SVGID_3_" d="M965.6,422.3c-12.8,0.3-31.7,0.7-56.6,0.8c-24.9,0.2-51.7,0.3-80.4,0.6s-57.2,0.3-85.4,0.6
				c-28.1,0.2-52.4,0.2-72.5,0.2c-9.5,0-18.5-0.9-26.8-2.7c-8.3-1.8-15.3-4-21-6.6c-13.4-6.3-19.5-12-18.5-17.1
				c1-4,2.7-8.4,4.6-13.2c1.9-4.8,4.6-9.2,7.9-13.2c2.8-3.6,6.7-6.4,11.8-8.3c5.1-1.8,12.1-1.8,21,0c6.1,1.1,12.7,2.2,19.6,3.1
				c7,0.9,13.8,1.4,20.5,1.4c5.5,0,12.7-0.1,21.3-0.2c8.6-0.2,18.6-0.5,29.8-0.8c0-1.8-0.1-3.5-0.4-5c-0.3-1.5-0.4-2.6-0.4-3.3
				c-1.2-5.5-5.7-10.8-13.4-16c-4.5-3-7.6-5.8-9.2-8.6c-1.6-2.7-0.3-6.2,4.2-10.3c1.6-1.5,4.3-3.4,7.9-5.8c3.6-2.4,7.6-4.8,11.8-7.2
				c4.2-2.4,8.3-4.6,12.5-6.6c4.2-2.1,7.7-3.5,10.4-4.7c5.5-1.8,11.5-2.6,17.6-2.2c6.1,0.3,11.5,1.5,15.9,3.3
				c4.5,1.8,10,4.3,16.4,7.4c6.4,3.1,12.7,6.6,18.9,10.5c6.1,3.9,11.5,8,15.9,12.4c4.5,4.4,7,8.7,7.6,12.7l1.6,18.8l51.9-1.7
				c10.6-0.3,19.5-0.3,26.8,0s13.4,1.1,18.5,2.2c5.1,1.1,9.7,2.9,13.8,5.2s8.8,5.5,13.8,9.1c9.5,7.8,15,14,16.8,18.8
				c1.6,4.8,1.3,8.7-0.9,11.6c-2.8,3.6-6.3,7-10.4,9.9C984.5,420.4,976.8,422,965.6,422.3z M834.2,604.1c-3.4,0.8-7.6,1.3-12.5,1.4
				c-5.1,0.2-9.8,0.2-14.3,0.2c-19.5,0-38.6-1.5-57-4.4c-18.5-3-34.8-7.3-49.4-13c-14.6-5.7-26.5-12.8-36-21.3
				c-9.5-8.4-15-18.4-16.8-29.9c-1.6-11.4,1-22.2,7.9-32.6c7-10.3,17-19.7,30.2-28.2c13.1-8.4,28.3-15.7,45.7-21.8
				c17.3-6,35.4-10.3,54.5-12.4c2.8-1.8,7.7-3.2,14.6-4.1c7-0.9,12.7-1.4,17.1-1.4c17.9,0,35.4,2.3,52.7,7
				c17.3,4.6,32.7,10.9,46.4,19c13.7,8.1,24.9,17.6,33.5,28.5c8.6,10.8,13,22.6,13,35.1c9.5-2.6,20.8-4.1,33.9-4.7s23.4-1,30.5-1.4
				c4.5,0,9.5-0.1,15-0.2c5.5-0.2,11.5-0.2,17.6-0.2c0-3.6,0-7.4,0-11.3s0.3-8,0.9-12.4H1044c-14-0.3-28-3.1-41.8-8.3
				c-14-5.1-25.9-10.8-36-17.1c-4.5-3-8.6-6-12.5-9.4c-3.9-3.3-5.4-7-4.2-11.1c1-6.6,6-10.9,14.6-13c8.6-2.1,19.4-3.4,32.3-4.1
				l66.1-2.7c0.6-11.7,1-22.9,1.6-33.4c0.6-10.5,1-19.8,1.6-27.9c0.6-5.9,0.7-10.7,0.4-14.6c-0.3-3.9-1.2-7.4-3-10.7
				c-1.6-3.3-3.9-6.6-6.7-9.9c-2.8-3.3-6.7-7.4-11.8-12.2c-6.1-6.3-9.7-10.7-10.4-13.6c-0.9-2.7,1.2-6.2,6.3-10.3
				c1.6-1.1,3.9-2.6,6.7-4.7c2.8-2.1,5.8-4,9.2-5.8c3.3-1.8,6.5-3.5,9.7-5.2c3.1-1.7,5.5-2.9,7.1-3.5c9.5-3.3,16.4-5,20.5-5.2
				c4.2-0.2,10.4,1.7,18.9,5.8c11.8,5.5,21,10.3,27.7,14.4c6.7,4.1,13.1,8.9,19.2,14.4c8.9,7.4,14.7,15.5,17.6,24.6
				c2.8,9,4.2,20.2,4.2,33.4c0,14.4,0,30.9,0,49.7s-0.1,37.5-0.4,56.3s-0.6,36.4-0.9,52.8c-0.3,16.4-0.7,29.2-1.2,38.4
				c-0.6,7.8-3,16-7.1,24.9c-4.2,8.9-9.7,17.6-16.4,26.2s-14.6,17-23.5,25.1c-8.9,8.1-18.5,15.5-28.4,22.1
				c-1.2-5.9-3.3-11.4-6.3-16.5c-3.1-5.1-6.4-10.3-10.1-15.2c-3.6-5-7.1-10-10.4-15.2c-3.4-5.1-5.8-10.7-7.6-16.5l-3.3-13.8
				c-2.2,0.3-5.7,0.6-10.1,0.6c-14.6,0.8-26.6-0.3-36.5-3.3c-9.8-3-19.4-6.4-28.9-10.5c-14-5.9-24.9-12.7-32.6-20.4
				c-7.9,15.5-22.8,27.6-44.8,36.5C891.2,595.3,864.8,601.1,834.2,604.1z M1194.2,710.2c5.5,7.8,7.1,13.6,4.6,17.7
				c-2.5,4-7.9,8.4-16.4,13.2c-10,5.5-19.2,9.8-27.7,12.7c-8.3,3-16.8,5.1-25.6,6.6c-8.6,1.5-18,2.4-28,2.7
				c-10,0.3-21.4,0.7-34.4,1.1c-6.1,0-15.8,0-28.9,0s-27.1-0.1-41.8-0.2c-14.7-0.2-29-0.5-42.7-0.8c-13.7-0.3-24.1-0.8-31.4-1.1
				c-11.2-0.8-21-1.6-29.3-2.5c-8.3-0.9-16.2-2.3-23.5-4.1c-7.3-1.8-14-4.3-20.1-7.4c-6.1-3.1-12.8-7.4-20.1-13
				c-11.2-8.4-20.5-16-28-22.7c-7.6-6.6-15.2-12.5-23.1-17.7c-6.1-4-13.1-8.1-21-12.2c-7.9-4-15.9-6.6-24.3-7.8
				c-4.5-0.7-8.5-2.7-12.2-6c-3.6-3.3-5.5-7-5.5-11.1c0-8.1,2.8-13.7,8.3-16.9c5.5-3.1,14.7-6.2,27.7-9.1c9.5-2.2,19.4-4,29.8-5.2
				c10.3-1.3,18.6-2.3,24.7-3.1c9.5-1.1,17.9-1.3,25.2-0.6c7.3,0.8,13.1,3.1,17.6,7.2c9.5,9.2,18.5,17.4,26.8,24.6
				c8.3,7.2,17.3,13.3,26.8,18.5c10.6,6.3,19.4,10.3,26.3,12.2c7,1.8,16.1,3,27.2,3.3c5.1,0.3,11.6,0.7,19.6,0.8
				c8,0.2,16.8,0.2,26.3,0.2c9.5,0,18.9,0,28.4,0c9.5,0,18.5-0.2,26.8-0.6c8.9-0.3,19.2-1.1,31-2.5c11.8-1.3,21.4-2.9,29.3-4.7
				c12.8-3,22.3-4.1,28.4-3.6c6.1,0.6,13.1,3.1,21,7.4C1178.9,693.3,1188.1,701.4,1194.2,710.2z M753.8,522.3
				c0.6,8.4,5.5,15.5,15,21.3c9.5,5.7,20.1,8.9,31.9,9.7c16.2-0.7,29.3-3.6,39.3-8.9c10.1-5.1,15-12.5,15-22.1s-5.1-17.9-15-24.9
				c-10-7-22.3-11.1-36.9-12.2c-13.4,3-25.2,7.4-35.1,13.6C757.9,504.9,753.2,512.7,753.8,522.3z"/>
		</g>
	</g>
</g>
<rect x="86" y="102.9" class="st1" width="1028" height="880"/>
</svg>
