<?xml version="1.0" encoding="utf-8"?>
<!-- Generator: Adobe Illustrator 22.0.1, SVG Export Plug-In . SVG Version: 6.00 Build 0)  -->
<svg version="1.1" id="Layer_1" xmlns="http://www.w3.org/2000/svg" xmlns:xlink="http://www.w3.org/1999/xlink" x="0px" y="0px"
	 width="1200px" height="1080px" viewBox="0 0 1200 1080" style="enable-background:new 0 0 1200 1080;" xml:space="preserve">
<style type="text/css">
	.st0{fill:#FFFFFF;}
</style>
<g>
	<g>
		<path class="st0" d="M-978.9,1490.2c-13.6,1.7-27.2,4.2-41,7.5c-13.8,3.4-27.2,7.7-40.4,13.2c-13.2,5.4-25.1,11.9-35.7,19.4
			c2.4-37.6,5.1-79.4,8.3-125.4c3.1-46,6.8-93.6,10.9-143c4.1-49.3,8.3-99.1,12.4-149.3c4.1-50.2,8.3-98.3,12.7-144.3
			c9.8-109.5,20.2-221.2,31.2-334.9l103.2-28.9c-10.6,97-20.8,191.5-30.7,283.5c-4.3,39.3-8.6,80.1-13,122.3
			c-4.3,42.2-8.5,83.4-12.4,123.6c-3.9,40.1-7.5,79-10.6,116.7c-3.1,37.6-5.7,71.1-7.7,100.3c9.8-1.7,20.3-2.7,31.5-3.1
			c11.2-0.4,21.1-0.6,29.8-0.6c0.4,15.9,1,31.6,1.8,47c0.8,15.5,1.7,29.5,2.7,42c1,12.5,1.8,23.6,2.4,33.2
			c0.6,9.6,1.1,16.1,1.5,19.4c-3.1,0-6.2-0.2-9.1-0.6c-2.9-0.4-6-0.6-9.1-0.6C-952.5,1487.7-965.3,1488.5-978.9,1490.2z"/>
		<path class="st0" d="M-828.3,1505.9c-10.2,2.1-20.8,4.6-31.8,7.5c-11,2.9-20.9,5.6-29.8,8.2c-8.8,2.5-13.6,4.2-14.4,5
			c4.7-35.9,9.4-75.9,14.1-119.8s9.5-89.9,14.4-138c4.9-48.1,9.6-96.8,14.1-146.1c4.5-49.3,8.9-97,13.3-143
			c9.8-107,19.5-217,28.9-329.9l92-31.4c-10.2,112.1-20.4,222-30.7,329.9c-4.3,46-8.7,93.7-13.3,143c-4.5,49.4-8.8,98.3-13,146.8
			c-4.1,48.5-8.3,95.5-12.4,141.1c-4.1,45.6-7.8,86.8-10.9,123.6C-811.2,1502.7-818.1,1503.8-828.3,1505.9z"/>
		<path class="st0" d="M-776.4,1520.3c17.3-111.2,33.8-220.3,49.5-327.4c6.7-45.2,13.6-92.4,20.6-141.7
			c7.1-49.3,14.1-98.3,21.2-146.8c7.1-48.5,13.6-95.3,19.7-140.5c6.1-45.2,11.5-87,16.2-125.4c21.6,0,42-2.5,61.3-7.5
			c19.2-5,40.1-9.6,62.5-13.8c-1.2,18.4-2.5,39.1-3.8,62.1c-1.4,23-2.9,47-4.7,72.1c-1.8,25.1-3.6,51-5.6,77.8
			c-2,26.8-4.3,61.1-7.1,102.9c-2.8,41.8-6.5,94.1-11.2,156.8h7.7c11.4-63.5,20.8-116.4,28.3-158.7c7.5-42.2,13.6-76.7,18.3-103.5
			c4.7-26.8,9.5-52.9,14.4-78.4c4.9-25.5,9.6-49.7,14.1-72.8c4.5-23,8.7-43.3,12.7-60.8c9.8-1.7,19.1-3.8,27.7-6.3
			c8.6-2.5,17.3-5.2,25.9-8.2c8.6-2.9,17.4-5.8,26.2-8.8c8.8-2.9,18.6-6.5,29.2-10.7c-3.9,48.5-7.7,98.3-11.2,149.3
			c-3.5,51-6.7,101.8-9.4,152.4c-2.8,50.6-5.4,100.6-8,149.9c-2.6,49.4-4.8,96.2-6.8,140.5c-4.7,103.7-8.8,204.9-12.4,303.6
			l-102.6,38.9c0-4.2,0.3-15.5,0.9-33.9c0.6-18.4,1.4-41,2.4-67.7c1-26.8,2.4-56.4,4.1-89.1c1.8-32.6,3.5-65.2,5.3-97.8
			c1.8-32.6,3.6-64.2,5.6-94.7c2-30.5,3.9-56.6,5.9-78.4h-5.3c-5.5,35.1-11.6,72.1-18.3,111c-6.7,38.9-13.5,78.4-20.3,118.5
			c-6.9,40.1-13.7,79.5-20.3,117.9c-6.7,38.5-12.6,75.3-17.7,110.4c-13.8,0.8-25.5,1.9-35.4,3.1c-9.8,1.3-21.2,2.7-34.2,4.4
			l18.9-465.4h-8.8c-0.8,10.9-2.8,29.1-5.9,54.6c-3.1,25.5-6.8,54.8-10.9,87.8c-4.1,33-8.5,67.3-13.3,102.9
			c-4.7,35.6-9.1,68.6-13.3,99.1c-4.1,30.5-7.6,55.6-10.3,75.3c-2.8,19.7-4.3,30.7-4.7,33.2L-776.4,1520.3z"/>
	</g>
	<g>
		<g>
			<defs>
				<path id="SVGID_1_" d="M-868.1,1086.5c5.5,3.6,10.1,6.9,13.7,10.2c3.6,3.2,6.4,6.8,8.3,10.7c1.9,3.9,3,8.2,3.4,13.1
					c0.3,4.8,0,10.7-1,17.4c-1,6.1-2.8,11-5.2,14.5c-2.4,3.6-5.4,6.1-9.1,7.8c-3.6,1.6-7.9,2.5-12.7,2.7c-4.8,0.2-10.2-0.1-16.1-0.7
					c-7.6-1-14.4-3.5-20.5-7.5c-6.1-4-11.9-9.3-17.4-15.7c-3.5-3.9-7.9-8.6-13.2-14.3c-5.4-5.6-10.8-11.1-16.3-16.2
					c-4.8,6.5-9.7,12.4-14.5,17.9c-4.8,5.5-9.7,10.2-14.5,14c-6.6,5.5-12.8,10-18.7,13.6c-5.9,3.6-11.9,6.5-17.9,8.7
					c-6.1,2.3-12.4,3.8-18.9,4.6c-6.6,0.8-13.8,1.1-21.8,0.7c-9.3-0.3-20.6-2.3-33.7-5.8c-13.1-3.6-25.3-8.2-36.3-14
					c4.8-1.3,9.3-2.7,13.5-4.1s9.2-3.6,15-6.5c16.6-8.4,31.8-18.2,45.7-29.3c13.8-11.1,26.4-23.1,37.6-35.8
					c11.2-12.8,21.4-26,30.6-39.7c9.2-13.7,17.7-27.5,25.7-41.4c-9.7,0.7-19.4,1.1-29.1,1.2c-9.7,0.2-18.3,0.1-25.9-0.2
					c-15.6-0.6-28.4-3.3-38.4-8c-10-4.7-19.4-13.8-28-27.4c-3.5-5.2-2.8-10.7,2.1-16.5c2.4-2.9,5.1-5.9,8-9c2.9-3.1,5.8-5.4,8.6-7
					c3.8-2.3,6.8-3.1,9.1-2.4c2.2,0.7,5.1,1.9,8.6,3.9c6.6,3.6,14.7,5.3,24.4,5.3c4.2,0,9.9-0.1,17.1-0.2c7.3-0.2,15-0.5,23.1-1
					c8.1-0.5,16.2-1,24.1-1.5c8-0.5,15-1,21.3-1.7c3.8-1.6,8-3.1,12.7-4.6c4.7-1.5,9.8-1.9,15.3-1.2c2.8,0.3,5.4,1.1,7.8,2.2
					c2.4,1.1,5.2,3,8.3,5.6c2.4,1.6,5.4,4.2,8.8,7.8c3.5,3.6,6.6,7.1,9.3,10.7c2.4,3.6,4.2,7,5.2,10.4c1,3.4,1,6.9,0,10.4
					c-1.7,6.5-4.3,12.2-7.8,17.2c-3.5,5-6.6,10.3-9.3,15.7c-4.8,8.7-9.9,17.8-15,27.1c-5.2,9.4-10.6,18.6-16.1,27.6
					c3.8,2.3,8.1,4.8,13,7.8c4.8,2.9,9.7,5.9,14.5,9c4.8,3.1,9.3,5.9,13.5,8.5C-873.3,1083.3-870.2,1085.3-868.1,1086.5z
					 M-730.6,1152.4c0,11.3-1.6,22.9-4.9,34.6c-3.3,11.8-7.7,23.3-13.2,34.4c-5.5,11.1-11.9,21.7-18.9,31.7
					c-7.1,10-14.4,18.9-22.1,26.6c0.3-7.8-1-15.7-3.9-23.7c-2.9-8.1-6.3-16.3-10.1-24.7c-4.8-10.7-7.7-22.4-8.6-35.1
					c-0.9-12.8-1-27-0.3-42.9c0.3-17.1,0.8-36.1,1.3-56.9c0.5-20.8,0.8-41.7,0.8-62.5c0-20.8-0.1-40.6-0.3-59.3
					c-0.2-18.7-0.4-34.7-0.8-48c-0.7-12.6-2.1-22-4.2-28.3c-2.1-6.3-5.5-12-10.4-17.2c-6.2-6.8-8.2-12.3-6-16.5
					c2.2-4.2,7.9-9.7,16.9-16.5c4.5-3.2,8.4-5.9,11.7-8c3.3-2.1,6.4-3.3,9.3-3.6c2.9-0.3,6,0.2,9.1,1.5c3.1,1.3,6.9,3.4,11.4,6.3
					c8.3,5.8,15,11.1,20,15.7c5,4.7,9,9.7,11.9,15c2.9,5.3,5,11.2,6.2,17.7c1.2,6.5,1.8,14.2,1.8,23.3c0,11.3,0.2,24,0.5,38
					c0.3,14,0.6,28.6,0.8,43.6c0.2,15,0.3,30.1,0.5,45.3c0.2,15.2,0.3,29.6,0.5,43.4c0.2,13.7,0.3,26.3,0.5,37.8
					C-730.7,1135.6-730.6,1145-730.6,1152.4z"/>
			</defs>
			<use xlink:href="#SVGID_1_"  style="overflow:visible;"/>
			<clipPath id="SVGID_2_">
				<use xlink:href="#SVGID_1_"  style="overflow:visible;"/>
			</clipPath>
		</g>
		<g>
			<defs>
				<path id="SVGID_3_" d="M-481.8,952.3c-8.6,0.3-21.3,0.6-38,0.7c-16.7,0.2-34.7,0.3-54,0.5c-19.3,0.2-38.4,0.3-57.4,0.5
					c-18.9,0.2-35.2,0.2-48.7,0.2c-6.4,0-12.4-0.8-18-2.4c-5.6-1.6-10.3-3.5-14.1-5.8c-9-5.5-13.1-10.5-12.4-15
					c0.7-3.5,1.8-7.4,3.1-11.6c1.3-4.2,3.1-8.1,5.3-11.6c1.9-3.2,4.5-5.6,7.9-7.3c3.4-1.6,8.1-1.6,14.1,0c4.1,1,8.5,1.9,13.2,2.7
					c4.7,0.8,9.3,1.2,13.8,1.2c3.7,0,8.5-0.1,14.3-0.2c5.8-0.2,12.5-0.4,20-0.7c0-1.6-0.1-3.1-0.3-4.4c-0.2-1.3-0.3-2.3-0.3-2.9
					c-0.8-4.8-3.8-9.5-9-14c-3-2.6-5.1-5.1-6.2-7.5c-1.1-2.4-0.2-5.4,2.8-9c1.1-1.3,2.9-3,5.3-5.1c2.4-2.1,5.1-4.2,7.9-6.3
					c2.8-2.1,5.6-4,8.4-5.8c2.8-1.8,5.2-3.1,7-4.1c3.7-1.6,7.7-2.3,11.8-1.9c4.1,0.3,7.7,1.3,10.7,2.9c3,1.6,6.7,3.8,11,6.5
					c4.3,2.7,8.5,5.8,12.7,9.2c4.1,3.4,7.7,7,10.7,10.9c3,3.9,4.7,7.6,5.1,11.1l1.1,16.5l34.9-1.5c7.1-0.3,13.1-0.3,18,0
					c4.9,0.3,9,1,12.4,1.9c3.4,1,6.5,2.5,9.3,4.6c2.8,2.1,5.9,4.8,9.3,8c6.4,6.8,10.1,12.3,11.3,16.5c1.1,4.2,0.9,7.6-0.6,10.2
					c-1.9,3.2-4.2,6.1-7,8.7C-469.1,950.6-474.3,952-481.8,952.3z M-570.1,1111.7c-2.3,0.7-5.1,1.1-8.4,1.2
					c-3.4,0.2-6.6,0.2-9.6,0.2c-13.1,0-25.9-1.3-38.3-3.9c-12.4-2.6-23.4-6.4-33.2-11.4c-9.8-5-17.8-11.2-24.2-18.7
					c-6.4-7.4-10.1-16.1-11.3-26.2c-1.1-10,0.7-19.5,5.3-28.6c4.7-9,11.4-17.3,20.3-24.7c8.8-7.4,19-13.8,30.7-19.1
					c11.6-5.3,23.8-9,36.6-10.9c1.9-1.6,5.2-2.8,9.8-3.6c4.7-0.8,8.5-1.2,11.5-1.2c12,0,23.8,2,35.4,6.1c11.6,4,22,9.6,31.2,16.7
					c9.2,7.1,16.7,15.4,22.5,25c5.8,9.5,8.7,19.8,8.7,30.8c6.4-2.3,14-3.6,22.8-4.1c8.8-0.5,15.7-0.9,20.5-1.2c3,0,6.4-0.1,10.1-0.2
					c3.7-0.2,7.7-0.2,11.8-0.2c0-3.2,0-6.5,0-9.9c0-3.4,0.2-7,0.6-10.9h-11.8c-9.4-0.3-18.8-2.7-28.1-7.3c-9.4-4.5-17.4-9.5-24.2-15
					c-3-2.6-5.8-5.3-8.4-8.2c-2.6-2.9-3.6-6.1-2.8-9.7c0.7-5.8,4-9.6,9.8-11.4c5.8-1.8,13-3,21.7-3.6l44.4-2.4
					c0.4-10.3,0.7-20.1,1.1-29.3c0.4-9.2,0.7-17.4,1.1-24.5c0.4-5.2,0.5-9.4,0.3-12.8c-0.2-3.4-0.8-6.5-2-9.4
					c-1.1-2.9-2.6-5.8-4.5-8.7c-1.9-2.9-4.5-6.5-7.9-10.7c-4.1-5.5-6.5-9.4-7-11.9c-0.6-2.4,0.8-5.4,4.2-9c1.1-1,2.6-2.3,4.5-4.1
					c1.9-1.8,3.9-3.5,6.2-5.1c2.2-1.6,4.4-3.1,6.5-4.6c2.1-1.5,3.7-2.5,4.8-3.1c6.4-2.9,11-4.4,13.8-4.6c2.8-0.2,7,1.5,12.7,5.1
					c7.9,4.8,14.1,9,18.6,12.6c4.5,3.6,8.8,7.8,12.9,12.6c6,6.5,9.9,13.6,11.8,21.6c1.9,7.9,2.8,17.7,2.8,29.3c0,12.6,0,27.1,0,43.6
					c0,16.5-0.1,32.9-0.3,49.4c-0.2,16.5-0.4,31.9-0.6,46.3c-0.2,14.4-0.5,25.6-0.8,33.7c-0.4,6.8-2,14-4.8,21.8
					c-2.8,7.8-6.5,15.4-11,23c-4.5,7.6-9.8,14.9-15.8,22c-6,7.1-12.4,13.6-19.1,19.4c-0.8-5.2-2.2-10-4.2-14.5
					c-2.1-4.5-4.3-9-6.8-13.3c-2.4-4.4-4.8-8.8-7-13.3c-2.3-4.5-3.9-9.4-5.1-14.5l-2.2-12.1c-1.5,0.3-3.8,0.5-6.8,0.5
					c-9.8,0.7-17.9-0.3-24.5-2.9c-6.6-2.6-13-5.6-19.4-9.2c-9.4-5.2-16.7-11.1-21.9-17.9c-5.3,13.6-15.3,24.2-30.1,32
					C-531.8,1104-549.5,1109.1-570.1,1111.7z M-328.2,1204.7c3.7,6.8,4.8,11.9,3.1,15.5c-1.7,3.5-5.3,7.4-11,11.6
					c-6.7,4.8-12.9,8.6-18.6,11.1c-5.6,2.6-11.3,4.5-17.2,5.8c-5.8,1.3-12.1,2.1-18.8,2.4c-6.7,0.3-14.4,0.6-23.1,1
					c-4.1,0-10.6,0-19.4,0c-8.8,0-18.2-0.1-28.1-0.2c-9.9-0.2-19.5-0.4-28.7-0.7c-9.2-0.3-16.2-0.7-21.1-1
					c-7.5-0.7-14.1-1.4-19.7-2.2c-5.6-0.8-10.9-2-15.8-3.6c-4.9-1.6-9.4-3.8-13.5-6.5c-4.1-2.7-8.6-6.5-13.5-11.4
					c-7.5-7.4-13.8-14-18.8-19.9c-5.1-5.8-10.2-11-15.5-15.5c-4.1-3.5-8.8-7.1-14.1-10.7c-5.3-3.5-10.7-5.8-16.3-6.8
					c-3-0.6-5.7-2.4-8.2-5.3c-2.4-2.9-3.7-6.1-3.7-9.7c0-7.1,1.9-12,5.6-14.8c3.7-2.7,9.9-5.4,18.6-8c6.4-1.9,13-3.5,20-4.6
					c6.9-1.1,12.5-2,16.6-2.7c6.4-1,12-1.1,16.9-0.5c4.9,0.7,8.8,2.7,11.8,6.3c6.4,8.1,12.4,15.3,18,21.6c5.6,6.3,11.6,11.7,18,16.2
					c7.1,5.5,13,9,17.7,10.7c4.7,1.6,10.8,2.6,18.3,2.9c3.4,0.3,7.8,0.6,13.2,0.7c5.4,0.2,11.3,0.2,17.7,0.2c6.4,0,12.7,0,19.1,0
					c6.4,0,12.4-0.2,18-0.5c6-0.3,12.9-1,20.8-2.2c7.9-1.1,14.4-2.5,19.7-4.1c8.6-2.6,15-3.6,19.1-3.2c4.1,0.5,8.8,2.7,14.1,6.5
					C-338.5,1189.9-332.3,1197-328.2,1204.7z M-624.1,1040c0.4,7.4,3.7,13.6,10.1,18.7c6.4,5,13.5,7.8,21.4,8.5
					c10.9-0.6,19.7-3.2,26.4-7.8c6.8-4.5,10.1-11,10.1-19.4c0-8.4-3.4-15.7-10.1-21.8c-6.7-6.1-15-9.7-24.8-10.7
					c-9,2.6-16.9,6.5-23.6,11.9C-621.3,1024.7-624.5,1031.6-624.1,1040z"/>
			</defs>
			<use xlink:href="#SVGID_3_"  style="overflow:visible;"/>
			<clipPath id="SVGID_4_">
				<use xlink:href="#SVGID_3_"  style="overflow:visible;"/>
			</clipPath>
		</g>
	</g>
</g>
</svg>
